<svg width="22" height="24" viewBox="0 0 22 24" fill="none" xmlns="http://www.w3.org/2000/svg">
<path fill-rule="evenodd" clip-rule="evenodd" d="M5 2C5 1.44772 5.44772 1 6 1C6.55228 1 7 1.44772 7 2V3H13V2C13 1.44772 13.4477 1 14 1C14.5523 1 15 1.44772 15 2V3C17.2091 3 19 4.79086 19 7V17C19 19.2091 17.2091 21 15 21H5C2.79086 21 1 19.2091 1 17V7C1 4.79086 2.79086 3 5 3V2ZM13 5C13 5.55228 13.4477 6 14 6C14.5523 6 15 5.55228 15 5L15.1493 5.00549C16.1841 5.08183 17 5.94564 17 7V8H3V7L3.00549 6.85074C3.08183 5.81588 3.94564 5 5 5C5 5.55228 5.44772 6 6 6C6.55228 6 7 5.55228 7 5H13Z" fill="#D9D9D9"/>
</svg>
