<svg width="22" height="24" viewBox="0 0 22 24" fill="none" xmlns="http://www.w3.org/2000/svg">
<path fill-rule="evenodd" clip-rule="evenodd" d="M12.027 8.03308C12.7517 10.4277 11.8183 13.0131 9.72937 14.3971C11.4634 15.0352 12.9621 16.1837 14.027 17.6906C14.19 17.9215 14.2104 18.2237 14.0801 18.4744C13.9497 18.725 13.6902 18.8823 13.4071 18.8823L-0.241715 18.8829C-0.524819 18.8829 -0.78435 18.7256 -0.914759 18.4749C-1.04517 18.2243 -1.02473 17.9221 -0.861768 17.6912C0.203086 16.184 1.702 15.0353 3.43628 14.3971C1.34738 13.0131 0.413952 10.4277 1.13865 8.03308C1.86334 5.63846 4.07507 4 6.58282 4C9.09058 4 11.3023 5.63846 12.027 8.03308ZM19.4726 7.30772C20.6404 9.8439 19.7852 12.8506 17.456 14.3971C19.1901 15.0352 20.6888 16.1837 21.7536 17.6906C21.9166 17.9215 21.9371 18.2237 21.8067 18.4743C21.6763 18.725 21.4169 18.8823 21.1338 18.8823L16.8951 18.8829C16.6006 18.8829 16.3326 18.7128 16.208 18.4465C15.6254 17.2007 14.8052 16.0799 13.7931 15.1467C13.778 15.1327 13.7643 15.118 13.7506 15.1032C13.4859 14.8622 13.2093 14.6345 12.9219 14.4211C12.6069 14.1874 12.5228 13.7527 12.728 13.4189C14.2618 10.921 14.1176 7.74356 12.364 5.39396C12.2149 5.19423 12.174 4.93413 12.2545 4.69844C12.335 4.46275 12.5266 4.28168 12.7669 4.21426C15.4607 3.45957 18.3047 4.77155 19.4726 7.30772Z" fill="#D9D9D9"/>
</svg>
